# Blender v3.2.0 OBJ File: 'Church.blend'
# www.blender.org
mtllib KanzelStickyNotes.mtl
o KanzelStickyNotes_Cube.044
v -0.534919 -0.030130 -0.195009
v -0.602149 -0.030130 -0.209029
v -0.533904 -0.064077 -0.199877
v -0.601134 -0.064077 -0.213897
v -0.531291 -0.096466 -0.212410
v -0.598521 -0.096466 -0.226430
v -0.393688 -0.083521 0.646601
v -0.462364 -0.083521 0.646601
v -0.393688 -0.088494 0.680547
v -0.462364 -0.088494 0.680547
v -0.393688 -0.101296 0.712937
v -0.462364 -0.101296 0.712937
v -0.510894 -0.083521 0.421390
v -0.579570 -0.083521 0.421390
v -0.510894 -0.088494 0.455337
v -0.579570 -0.088494 0.455337
v -0.510894 -0.101296 0.487727
v -0.579570 -0.101296 0.487727
v -0.842434 -0.083521 0.893279
v -0.911110 -0.083521 0.893279
v -0.842434 -0.088494 0.927226
v -0.911110 -0.088494 0.927226
v -0.842434 -0.101296 0.959615
v -0.911110 -0.101296 0.959615
v -0.864925 -0.083521 0.505059
v -0.933601 -0.083521 0.505059
v -0.864925 -0.088494 0.539006
v -0.933601 -0.088494 0.539006
v -0.864925 -0.101296 0.571395
v -0.933601 -0.101296 0.571395
v -0.186217 -0.083521 0.856232
v -0.254893 -0.083521 0.856232
v -0.186217 -0.088494 0.890179
v -0.254893 -0.088494 0.890179
v -0.186217 -0.101296 0.922569
v -0.254893 -0.101296 0.922569
v -0.570108 -0.083521 -0.171675
v -0.638784 -0.083521 -0.171675
v -0.570108 -0.088494 -0.137728
v -0.638784 -0.088494 -0.137728
v -0.570108 -0.101296 -0.105338
v -0.638784 -0.101296 -0.105338
v 0.571822 -0.083521 0.459552
v 0.503146 -0.083521 0.459552
v 0.571822 -0.088494 0.493499
v 0.503146 -0.088494 0.493499
v 0.571822 -0.101296 0.525888
v 0.503146 -0.101296 0.525888
v 0.395420 -0.083521 1.280593
v 0.326744 -0.083521 1.280593
v 0.395420 -0.088494 1.314540
v 0.326744 -0.088494 1.314540
v 0.395420 -0.101296 1.346929
v 0.326744 -0.101296 1.346929
v 0.487736 -0.083521 1.062358
v 0.419060 -0.083521 1.062358
v 0.487736 -0.088494 1.096304
v 0.419060 -0.088494 1.096304
v 0.487736 -0.101296 1.128694
v 0.419060 -0.101296 1.128694
v 0.711661 -0.028861 0.637782
v 0.725681 -0.028861 0.570552
v 0.716529 -0.062808 0.638797
v 0.730549 -0.062808 0.571567
v 0.729061 -0.095197 0.641411
v 0.743081 -0.095197 0.574181
v 0.601412 -0.022481 1.166464
v 0.615432 -0.022481 1.099234
v 0.606280 -0.056428 1.167479
v 0.620300 -0.056428 1.100250
v 0.618813 -0.088817 1.170093
v 0.632832 -0.088817 1.102863
v -0.738940 0.083521 -0.029222
v -0.670264 0.083521 -0.029222
v -0.738940 0.088494 0.004725
v -0.670264 0.088494 0.004725
v -0.738940 0.101296 0.037114
v -0.670264 0.101296 0.037114
v 0.253143 0.083521 1.088538
v 0.321819 0.083521 1.088538
v 0.253143 0.088494 1.122485
v 0.321819 0.088494 1.122485
v 0.253143 0.101296 1.154874
v 0.321819 0.101296 1.154874
v 0.260176 0.083521 1.469622
v 0.328852 0.083521 1.469622
v 0.260176 0.088494 1.503569
v 0.328852 0.088494 1.503569
v 0.260176 0.101296 1.535958
v 0.328852 0.101296 1.535958
v 0.180991 0.083521 1.449385
v 0.249667 0.083521 1.449385
v 0.180991 0.088494 1.483332
v 0.249667 0.088494 1.483332
v 0.180991 0.101296 1.515721
v 0.249667 0.101296 1.515721
v 0.153251 0.083521 1.442545
v 0.176740 0.083521 1.507080
v 0.121352 0.088494 1.454156
v 0.144840 0.088494 1.518690
v 0.090916 0.101296 1.465233
v 0.114404 0.101296 1.529768
v 0.291384 0.083521 0.503371
v 0.314872 0.083521 0.567906
v 0.259484 0.088494 0.514981
v 0.282973 0.088494 0.579516
v 0.229048 0.101296 0.526059
v 0.252537 0.101296 0.590594
v -0.212125 0.083521 0.270133
v -0.188636 0.083521 0.334668
v -0.244025 0.088494 0.281744
v -0.220536 0.088494 0.346278
v -0.274461 0.101296 0.292821
v -0.250972 0.101296 0.357356
v -0.570223 0.083521 -0.019628
v -0.501547 0.083521 -0.019628
v -0.570223 0.088494 0.014318
v -0.501547 0.088494 0.014318
v -0.570223 0.101296 0.046708
v -0.501547 0.101296 0.046708
v -0.212615 0.083521 0.647412
v -0.143939 0.083521 0.647412
v -0.212615 0.088494 0.681359
v -0.143939 0.088494 0.681359
v -0.212615 0.101296 0.713748
v -0.143939 0.101296 0.713748
v -0.156148 -0.083521 1.505885
v -0.132659 -0.083521 1.570420
v -0.188048 -0.078548 1.517496
v -0.164559 -0.078548 1.582030
v -0.218484 -0.065747 1.528574
v -0.194995 -0.065747 1.593108
v 0.426722 -0.233999 1.497641
v 0.358046 -0.233999 1.497641
v 0.426722 -0.238972 1.531588
v 0.358046 -0.238972 1.531588
v 0.426722 -0.251774 1.563977
v 0.358046 -0.251774 1.563977
v -0.072801 -0.142950 1.311832
v -0.140031 -0.142950 1.297812
v -0.071786 -0.176896 1.306964
v -0.139016 -0.176896 1.292944
v -0.069172 -0.209286 1.294432
v -0.136402 -0.209286 1.280412
v 0.441137 -0.362467 1.935033
v 0.455157 -0.362467 1.867803
v 0.446005 -0.396414 1.936048
v 0.460025 -0.396414 1.868818
v 0.458538 -0.428803 1.938662
v 0.472558 -0.428803 1.871432
v 0.109211 -0.233999 2.018295
v 0.132699 -0.233999 2.082829
v 0.077311 -0.229026 2.029905
v 0.100800 -0.229026 2.094440
v 0.046875 -0.216224 2.040983
v 0.070364 -0.216224 2.105518
v -1.027740 -0.233999 1.741427
v -0.959064 -0.233999 1.741427
v -1.027740 -0.229026 1.775374
v -0.959064 -0.229026 1.775374
v -1.027740 -0.216224 1.807764
v -0.959064 -0.216224 1.807764
v 0.303309 -0.233999 1.894235
v 0.371985 -0.233999 1.894235
v 0.303309 -0.229026 1.928182
v 0.371985 -0.229026 1.928182
v 0.303309 -0.216224 1.960572
v 0.371985 -0.216224 1.960572
v 0.133455 -0.233999 1.862603
v 0.202131 -0.233999 1.862603
v 0.133455 -0.229026 1.896550
v 0.202131 -0.229026 1.896550
v 0.133455 -0.216224 1.928939
v 0.202131 -0.216224 1.928939
v -0.526234 -0.384477 1.600894
v -0.594910 -0.384477 1.600894
v -0.526234 -0.389450 1.634841
v -0.594910 -0.389450 1.634841
v -0.526234 -0.402252 1.667230
v -0.594910 -0.402252 1.667230
v -0.503007 -0.384477 1.902900
v -0.571683 -0.384477 1.902900
v -0.503007 -0.389450 1.936846
v -0.571683 -0.389450 1.936846
v -0.503007 -0.402252 1.969236
v -0.571683 -0.402252 1.969236
v -0.402503 -0.348680 1.520873
v -0.469733 -0.348680 1.506853
v -0.401488 -0.382626 1.516005
v -0.468718 -0.382626 1.501985
v -0.398875 -0.415016 1.503472
v -0.466105 -0.415016 1.489452
v -0.367974 -0.313518 1.528074
v -0.435204 -0.313518 1.514054
v -0.366959 -0.347465 1.523205
v -0.434189 -0.347465 1.509186
v -0.364346 -0.379854 1.510673
v -0.431576 -0.379854 1.496653
v -1.154067 -0.421384 2.093017
v -1.086837 -0.421384 2.107037
v -1.155083 -0.455331 2.097885
v -1.087853 -0.455331 2.111905
v -1.157696 -0.487720 2.110417
v -1.090466 -0.487720 2.124437
v -0.099853 -0.462042 2.312858
v -0.032623 -0.462042 2.326877
v -0.100868 -0.495989 2.317725
v -0.033638 -0.495989 2.331745
v -0.103482 -0.528378 2.330258
v -0.036252 -0.528378 2.344278
v 0.344032 -0.420860 2.400692
v 0.358051 -0.420860 2.333462
v 0.348900 -0.454807 2.401707
v 0.362919 -0.454807 2.334477
v 0.361432 -0.487196 2.404321
v 0.375452 -0.487196 2.337091
v 0.358471 -0.409769 2.331451
v 0.372491 -0.409769 2.264221
v 0.363339 -0.443716 2.332466
v 0.377359 -0.443716 2.265236
v 0.375871 -0.476105 2.335080
v 0.389891 -0.476105 2.267850
v -0.355344 -0.384477 2.257437
v -0.286667 -0.384477 2.257437
v -0.355344 -0.379504 2.291383
v -0.286667 -0.379504 2.291383
v -0.355344 -0.366702 2.323772
v -0.286667 -0.366702 2.323772
v -0.425678 -0.384477 2.049237
v -0.402189 -0.384477 2.113772
v -0.457577 -0.379504 2.060848
v -0.434089 -0.379504 2.125382
v -0.488013 -0.366702 2.071925
v -0.464525 -0.366702 2.136460
v 0.160442 -0.233999 1.563916
v 0.091766 -0.233999 1.563916
v 0.160442 -0.238972 1.597862
v 0.091766 -0.238972 1.597862
v 0.160442 -0.251774 1.630252
v 0.091766 -0.251774 1.630252
v 0.490785 -0.131568 1.696956
v 0.504805 -0.131568 1.629726
v 0.495653 -0.165514 1.697971
v 0.509673 -0.165514 1.630741
v 0.508186 -0.197904 1.700585
v 0.522206 -0.197904 1.633355
v -0.613552 0.842646 -0.105749
v -0.627572 0.842646 -0.038519
v -0.618420 0.808699 -0.106764
v -0.632440 0.808699 -0.039534
v -0.630952 0.776310 -0.109378
v -0.644972 0.776310 -0.042148
v -0.621174 0.278050 -0.069199
v -0.635194 0.278050 -0.001969
v -0.626042 0.244104 -0.070214
v -0.640062 0.244104 -0.002984
v -0.638574 0.211714 -0.072828
v -0.652594 0.211714 -0.005598
v 0.586273 0.564609 0.206394
v 0.600293 0.564609 0.139164
v 0.591141 0.530662 0.207409
v 0.605161 0.530662 0.140179
v 0.603674 0.498273 0.210022
v 0.617694 0.498273 0.142792
v -0.545313 1.043111 -0.073734
v -0.476636 1.043111 -0.073734
v -0.545313 1.048084 -0.039787
v -0.476636 1.048084 -0.039787
v -0.545313 1.060886 -0.007398
v -0.476636 1.060886 -0.007398
v -0.535058 0.461997 -0.125241
v -0.602288 0.461997 -0.139261
v -0.534043 0.428050 -0.130109
v -0.601273 0.428050 -0.144129
v -0.531429 0.395661 -0.142642
v -0.598659 0.395661 -0.156661
v -0.364897 0.207948 -0.089757
v -0.432127 0.207948 -0.103777
v -0.363882 0.174001 -0.094625
v -0.431112 0.174001 -0.108645
v -0.361269 0.141612 -0.107158
v -0.428499 0.141612 -0.121178
v -0.104159 0.211203 -0.035384
v -0.171389 0.211203 -0.049404
v -0.103144 0.177256 -0.040252
v -0.170374 0.177256 -0.054272
v -0.100530 0.144867 -0.052785
v -0.167760 0.144867 -0.066805
v -0.326102 0.548532 -0.081667
v -0.393332 0.548532 -0.095687
v -0.325087 0.514586 -0.086535
v -0.392317 0.514586 -0.100555
v -0.322473 0.482196 -0.099068
v -0.389703 0.482196 -0.113087
v 0.551542 0.740874 0.101353
v 0.484312 0.740874 0.087333
v 0.552557 0.706927 0.096485
v 0.485328 0.706927 0.082465
v 0.555171 0.674538 0.083952
v 0.487941 0.674538 0.069932
v -0.194835 0.403194 -0.054293
v -0.262065 0.403194 -0.068313
v -0.193820 0.369248 -0.059161
v -0.261050 0.369248 -0.073181
v -0.191206 0.336858 -0.071694
v -0.258436 0.336858 -0.085714
v -0.645246 0.837154 0.110825
v -0.578016 0.837154 0.124845
v -0.646261 0.803207 0.115693
v -0.579031 0.803207 0.129713
v -0.648875 0.770818 0.128226
v -0.581645 0.770818 0.142245
v 0.488152 0.884986 0.347178
v 0.555382 0.884986 0.361198
v 0.487137 0.851039 0.352046
v 0.554367 0.851039 0.366066
v 0.484523 0.818650 0.364579
v 0.551753 0.818650 0.378599
v -0.493671 0.501722 0.142433
v -0.426441 0.501722 0.156453
v -0.494687 0.467776 0.147301
v -0.427457 0.467776 0.161321
v -0.497300 0.435386 0.159834
v -0.430070 0.435386 0.173853
v 0.415279 0.419681 0.331981
v 0.482509 0.419681 0.346002
v 0.414264 0.385734 0.336849
v 0.481494 0.385734 0.350870
v 0.411651 0.353345 0.349382
v 0.478881 0.353345 0.363402
v 0.214181 0.550263 0.290045
v 0.281411 0.550263 0.304065
v 0.213166 0.516317 0.294913
v 0.280396 0.516317 0.308933
v 0.210552 0.483927 0.307445
v 0.277782 0.483927 0.321465
v -0.168666 0.943140 0.210208
v -0.101436 0.943140 0.224228
v -0.169681 0.909194 0.215076
v -0.102451 0.909194 0.229096
v -0.172295 0.876804 0.227609
v -0.105065 0.876804 0.241628
v 0.310601 1.196613 0.175330
v 0.377831 1.196613 0.189350
v 0.303823 1.187960 0.207831
v 0.371053 1.187960 0.221850
v 0.296715 1.187124 0.241915
v 0.363945 1.187124 0.255935
v 0.155044 2.527945 1.353714
v 0.140286 2.527945 1.420785
v 0.183931 2.510560 1.360070
v 0.169173 2.510560 1.427141
v 0.208530 2.486507 1.365482
v 0.193772 2.486507 1.432554
v 0.702101 0.174056 0.294327
v 0.716121 0.174056 0.227097
v 0.706969 0.140109 0.295342
v 0.720989 0.140109 0.228112
v 0.719502 0.107720 0.297956
v 0.733522 0.107720 0.230726
v 0.295618 1.128385 1.651242
v 0.364294 1.128385 1.651242
v 0.295618 1.133358 1.685189
v 0.364294 1.133358 1.685189
v 0.295618 1.146160 1.717578
v 0.364294 1.146160 1.717578
v 0.276211 -0.132630 2.128919
v 0.343441 -0.132630 2.142939
v 0.272411 -0.161451 2.147141
v 0.339641 -0.161451 2.161161
v 0.267289 -0.185605 2.171703
v 0.334519 -0.185605 2.185723
v 0.349019 0.306130 1.926970
v 0.281789 0.306130 1.912950
v 0.347066 0.273181 1.936334
v 0.279836 0.273181 1.922315
v 0.346700 0.238400 1.938093
v 0.279470 0.238400 1.924073
vn 0.2020 0.1449 -0.9686
vn 0.1899 0.3676 -0.9104
vn 0.0000 -0.9894 -0.1449
vn 0.0000 -0.9300 -0.3676
vn 0.9686 0.1449 0.2020
vn 0.9104 0.3676 0.1899
vn 0.0000 0.9894 -0.1449
vn 0.0000 0.9300 -0.3676
vn 0.1362 0.9894 -0.0496
vn 0.3454 0.9300 -0.1257
vn -0.2020 0.1449 0.9686
vn -0.1899 0.3676 0.9104
vn -0.9686 0.1449 -0.2020
vn -0.9104 0.3676 -0.1899
vn 0.1898 0.3676 -0.9104
vn -0.1898 0.3676 0.9104
vn -0.0515 0.9677 0.2469
vn -0.0049 0.9997 0.0235
vn -0.4949 -0.8621 -0.1089
vn -0.6745 -0.7232 -0.1484
vn -0.1715 0.5425 0.8223
vn -0.1416 0.7204 0.6789
vn 0.1960 -0.2788 -0.9401
vn 0.2039 -0.0516 -0.9776
usemtl StickyNote
s off
f 1//1 3//1 4//1 2//1
f 3//2 5//2 6//2 4//2
f 7//3 9//3 10//3 8//3
f 9//4 11//4 12//4 10//4
f 13//3 15//3 16//3 14//3
f 15//4 17//4 18//4 16//4
f 19//3 21//3 22//3 20//3
f 21//4 23//4 24//4 22//4
f 25//3 27//3 28//3 26//3
f 27//4 29//4 30//4 28//4
f 31//3 33//3 34//3 32//3
f 33//4 35//4 36//4 34//4
f 37//3 39//3 40//3 38//3
f 39//4 41//4 42//4 40//4
f 43//3 45//3 46//3 44//3
f 45//4 47//4 48//4 46//4
f 49//3 51//3 52//3 50//3
f 51//4 53//4 54//4 52//4
f 55//3 57//3 58//3 56//3
f 57//4 59//4 60//4 58//4
f 61//5 63//5 64//5 62//5
f 63//6 65//6 66//6 64//6
f 67//5 69//5 70//5 68//5
f 69//6 71//6 72//6 70//6
f 73//7 75//7 76//7 74//7
f 75//8 77//8 78//8 76//8
f 79//7 81//7 82//7 80//7
f 81//8 83//8 84//8 82//8
f 85//7 87//7 88//7 86//7
f 87//8 89//8 90//8 88//8
f 91//7 93//7 94//7 92//7
f 93//8 95//8 96//8 94//8
f 97//9 99//9 100//9 98//9
f 99//10 101//10 102//10 100//10
f 103//9 105//9 106//9 104//9
f 105//10 107//10 108//10 106//10
f 109//9 111//9 112//9 110//9
f 111//10 113//10 114//10 112//10
f 115//7 117//7 118//7 116//7
f 117//8 119//8 120//8 118//8
f 121//7 123//7 124//7 122//7
f 123//8 125//8 126//8 124//8
f 127//9 129//9 130//9 128//9
f 129//10 131//10 132//10 130//10
f 133//3 135//3 136//3 134//3
f 135//4 137//4 138//4 136//4
f 139//1 141//1 142//1 140//1
f 141//2 143//2 144//2 142//2
f 145//5 147//5 148//5 146//5
f 147//6 149//6 150//6 148//6
f 151//9 153//9 154//9 152//9
f 153//10 155//10 156//10 154//10
f 157//7 159//7 160//7 158//7
f 159//8 161//8 162//8 160//8
f 163//7 165//7 166//7 164//7
f 165//8 167//8 168//8 166//8
f 169//7 171//7 172//7 170//7
f 171//8 173//8 174//8 172//8
f 175//3 177//3 178//3 176//3
f 177//4 179//4 180//4 178//4
f 181//3 183//3 184//3 182//3
f 183//4 185//4 186//4 184//4
f 187//1 189//1 190//1 188//1
f 189//2 191//2 192//2 190//2
f 193//1 195//1 196//1 194//1
f 195//2 197//2 198//2 196//2
f 199//11 201//11 202//11 200//11
f 201//12 203//12 204//12 202//12
f 205//11 207//11 208//11 206//11
f 207//12 209//12 210//12 208//12
f 211//5 213//5 214//5 212//5
f 213//6 215//6 216//6 214//6
f 217//5 219//5 220//5 218//5
f 219//6 221//6 222//6 220//6
f 223//7 225//7 226//7 224//7
f 225//8 227//8 228//8 226//8
f 229//9 231//9 232//9 230//9
f 231//10 233//10 234//10 232//10
f 235//3 237//3 238//3 236//3
f 237//4 239//4 240//4 238//4
f 241//5 243//5 244//5 242//5
f 243//6 245//6 246//6 244//6
f 247//13 249//13 250//13 248//13
f 249//14 251//14 252//14 250//14
f 253//13 255//13 256//13 254//13
f 255//14 257//14 258//14 256//14
f 259//5 261//5 262//5 260//5
f 261//6 263//6 264//6 262//6
f 265//7 267//7 268//7 266//7
f 267//8 269//8 270//8 268//8
f 271//1 273//1 274//1 272//1
f 273//15 275//15 276//15 274//15
f 277//1 279//1 280//1 278//1
f 279//2 281//2 282//2 280//2
f 283//1 285//1 286//1 284//1
f 285//2 287//2 288//2 286//2
f 289//1 291//1 292//1 290//1
f 291//2 293//2 294//2 292//2
f 295//1 297//1 298//1 296//1
f 297//2 299//2 300//2 298//2
f 301//1 303//1 304//1 302//1
f 303//2 305//2 306//2 304//2
f 307//11 309//11 310//11 308//11
f 309//16 311//16 312//16 310//16
f 313//11 315//11 316//11 314//11
f 315//12 317//12 318//12 316//12
f 319//11 321//11 322//11 320//11
f 321//12 323//12 324//12 322//12
f 325//11 327//11 328//11 326//11
f 327//12 329//12 330//12 328//12
f 331//11 333//11 334//11 332//11
f 333//12 335//12 336//12 334//12
f 337//11 339//11 340//11 338//11
f 339//12 341//12 342//12 340//12
f 343//17 345//17 346//17 344//17
f 345//18 347//18 348//18 346//18
f 349//19 351//19 352//19 350//19
f 351//20 353//20 354//20 352//20
f 355//5 357//5 358//5 356//5
f 357//6 359//6 360//6 358//6
f 361//7 363//7 364//7 362//7
f 363//8 365//8 366//8 364//8
f 367//21 369//21 370//21 368//21
f 369//22 371//22 372//22 370//22
f 373//23 375//23 376//23 374//23
f 375//24 377//24 378//24 376//24
